# xmcd CD database file
#
# Track frame offsets:
#	150
#	15322
#	30237
#	44060
#	56227
#	69585
#	82792
#	96595
#	113860
#	134427
#	148705
#	160817
#	172972
#	187867
#	204310
#	218600
#
# Disc length: 3112 seconds
#
# Revision: 1
# Processed by: cddbd v1.5.1PL0 Copyright (c) Steve Scherf et al.
# Submitted via: CDex 1.50
#
DISCID=d60c2610
DTITLE=Stompin' Tom Connors - Move Along With Stompin' Tom
DYEAR=1999
DGENRE=Country
TTITLE0=Move Along
TTITLE1=Songwriter's Wife
TTITLE2=Excuse Me
TTITLE3=If A Memory Was A Melody
TTITLE4=A Brand New Love Affair
TTITLE5=Stop Me
TTITLE6=Confederation Bridge
TTITLE7=Silver Sea
TTITLE8=Wildwood Flower
TTITLE9=Meadows Of My Mind
TTITLE10=Sammy Morgan's Gin
TTITLE11=Dominoes And Dice
TTITLE12=Long Gone To The Yukon
TTITLE13=Big Joe Mufferaw
TTITLE14=Sasquatch Song
TTITLE15=Waltzing Matilda
EXTD=YEAR: 1999
EXTT0=
EXTT1=
EXTT2=
EXTT3=
EXTT4=
EXTT5=
EXTT6=
EXTT7=
EXTT8=
EXTT9=
EXTT10=
EXTT11=
EXTT12=
EXTT13=
EXTT14=
EXTT15=
PLAYORDER=
